<svg width="121" height="42" viewBox="0 0 121 42" fill="none" xmlns="http://www.w3.org/2000/svg">
<rect x="0.5" width="120" height="42" rx="21" fill="#A3A3A3" fill-opacity="0.15"/>
<path d="M40.5 25V13C40.5 11.9 39.6 11 38.5 11L26.5 11C25.4 11 24.5 11.9 24.5 13V25C24.5 26.1 25.4 27 26.5 27H38.5C39.6 27 40.5 26.1 40.5 25ZM29.9 21.53L31.53 23.71L34.11 20.49C34.31 20.24 34.69 20.24 34.89 20.49L37.85 24.19C38.11 24.52 37.88 25 37.46 25H27.5C27.09 25 26.85 24.53 27.1 24.2L29.1 21.53C29.3 21.27 29.7 21.27 29.9 21.53ZM20.5 16V29C20.5 30.1 21.4 31 22.5 31H35.5C36.05 31 36.5 30.55 36.5 30C36.5 29.45 36.05 29 35.5 29H23.5C22.95 29 22.5 28.55 22.5 28V16C22.5 15.45 22.05 15 21.5 15C20.95 15 20.5 15.45 20.5 16Z" fill="#C3C3C3"/>
<path d="M62.2266 20.3359V24.5C62.0859 24.7083 61.862 24.9427 61.5547 25.2031C61.2474 25.4583 60.8229 25.6823 60.2812 25.875C59.7448 26.0625 59.0521 26.1562 58.2031 26.1562C57.5104 26.1562 56.8724 26.0365 56.2891 25.7969C55.7109 25.5521 55.2083 25.1979 54.7812 24.7344C54.3594 24.2656 54.0312 23.6979 53.7969 23.0312C53.5677 22.3594 53.4531 21.599 53.4531 20.75V19.8672C53.4531 19.0182 53.5521 18.2604 53.75 17.5938C53.9531 16.9271 54.25 16.362 54.6406 15.8984C55.0312 15.4297 55.5104 15.0755 56.0781 14.8359C56.6458 14.5911 57.2969 14.4688 58.0312 14.4688C58.901 14.4688 59.6276 14.6198 60.2109 14.9219C60.7995 15.2188 61.2578 15.6302 61.5859 16.1562C61.9193 16.6823 62.1328 17.2812 62.2266 17.9531H60.7188C60.651 17.5417 60.5156 17.1667 60.3125 16.8281C60.1146 16.4896 59.8307 16.2188 59.4609 16.0156C59.0911 15.8073 58.6146 15.7031 58.0312 15.7031C57.5052 15.7031 57.0495 15.7995 56.6641 15.9922C56.2786 16.1849 55.9609 16.4609 55.7109 16.8203C55.4609 17.1797 55.2734 17.6146 55.1484 18.125C55.0286 18.6354 54.9688 19.2109 54.9688 19.8516V20.75C54.9688 21.4062 55.0443 21.9922 55.1953 22.5078C55.3516 23.0234 55.5729 23.4635 55.8594 23.8281C56.1458 24.1875 56.487 24.4609 56.8828 24.6484C57.2839 24.8359 57.7266 24.9297 58.2109 24.9297C58.7474 24.9297 59.1823 24.8854 59.5156 24.7969C59.849 24.7031 60.1094 24.5938 60.2969 24.4688C60.4844 24.3385 60.6276 24.2161 60.7266 24.1016V21.5547H58.0938V20.3359H62.2266ZM69.4922 24.5547V20.2031C69.4922 19.8698 69.4245 19.5807 69.2891 19.3359C69.1589 19.0859 68.9609 18.8932 68.6953 18.7578C68.4297 18.6224 68.1016 18.5547 67.7109 18.5547C67.3464 18.5547 67.026 18.6172 66.75 18.7422C66.4792 18.8672 66.2656 19.0312 66.1094 19.2344C65.9583 19.4375 65.8828 19.6562 65.8828 19.8906H64.4375C64.4375 19.5885 64.5156 19.2891 64.6719 18.9922C64.8281 18.6953 65.0521 18.4271 65.3438 18.1875C65.6406 17.9427 65.9948 17.75 66.4062 17.6094C66.8229 17.4635 67.2865 17.3906 67.7969 17.3906C68.4115 17.3906 68.9531 17.4948 69.4219 17.7031C69.8958 17.9115 70.2656 18.2266 70.5312 18.6484C70.8021 19.0651 70.9375 19.5885 70.9375 20.2188V24.1562C70.9375 24.4375 70.9609 24.737 71.0078 25.0547C71.0599 25.3724 71.1354 25.6458 71.2344 25.875V26H69.7266C69.6536 25.8333 69.5964 25.612 69.5547 25.3359C69.513 25.0547 69.4922 24.7943 69.4922 24.5547ZM69.7422 20.875L69.7578 21.8906H68.2969C67.8854 21.8906 67.5182 21.9245 67.1953 21.9922C66.8724 22.0547 66.6016 22.151 66.3828 22.2812C66.1641 22.4115 65.9974 22.5755 65.8828 22.7734C65.7682 22.9661 65.7109 23.1927 65.7109 23.4531C65.7109 23.7188 65.7708 23.9609 65.8906 24.1797C66.0104 24.3984 66.1901 24.5729 66.4297 24.7031C66.6745 24.8281 66.974 24.8906 67.3281 24.8906C67.7708 24.8906 68.1615 24.7969 68.5 24.6094C68.8385 24.4219 69.1068 24.1927 69.3047 23.9219C69.5078 23.651 69.6172 23.388 69.6328 23.1328L70.25 23.8281C70.2135 24.0469 70.1146 24.2891 69.9531 24.5547C69.7917 24.8203 69.5755 25.0755 69.3047 25.3203C69.0391 25.5599 68.7214 25.7604 68.3516 25.9219C67.987 26.0781 67.5755 26.1562 67.1172 26.1562C66.5443 26.1562 66.0417 26.0443 65.6094 25.8203C65.1823 25.5964 64.849 25.2969 64.6094 24.9219C64.375 24.5417 64.2578 24.1172 64.2578 23.6484C64.2578 23.1953 64.3464 22.7969 64.5234 22.4531C64.7005 22.1042 64.9557 21.8151 65.2891 21.5859C65.6224 21.3516 66.0234 21.1745 66.4922 21.0547C66.9609 20.9349 67.4844 20.875 68.0625 20.875H69.7422ZM74.7812 14V26H73.3281V14H74.7812ZM78.6719 14V26H77.2188V14H78.6719ZM84.5 26.1562C83.9115 26.1562 83.3776 26.0573 82.8984 25.8594C82.4245 25.6562 82.0156 25.3724 81.6719 25.0078C81.3333 24.6432 81.0729 24.2109 80.8906 23.7109C80.7083 23.2109 80.6172 22.6641 80.6172 22.0703V21.7422C80.6172 21.0547 80.7188 20.4427 80.9219 19.9062C81.125 19.3646 81.401 18.9062 81.75 18.5312C82.099 18.1562 82.4948 17.8724 82.9375 17.6797C83.3802 17.487 83.8385 17.3906 84.3125 17.3906C84.9167 17.3906 85.4375 17.4948 85.875 17.7031C86.3177 17.9115 86.6797 18.2031 86.9609 18.5781C87.2422 18.9479 87.4505 19.3854 87.5859 19.8906C87.7214 20.3906 87.7891 20.9375 87.7891 21.5312V22.1797H81.4766V21H86.3438V20.8906C86.3229 20.5156 86.2448 20.151 86.1094 19.7969C85.9792 19.4427 85.7708 19.151 85.4844 18.9219C85.1979 18.6927 84.8073 18.5781 84.3125 18.5781C83.9844 18.5781 83.6823 18.6484 83.4062 18.7891C83.1302 18.9245 82.8932 19.1276 82.6953 19.3984C82.4974 19.6693 82.3438 20 82.2344 20.3906C82.125 20.7812 82.0703 21.2318 82.0703 21.7422V22.0703C82.0703 22.4714 82.125 22.849 82.2344 23.2031C82.349 23.5521 82.513 23.8594 82.7266 24.125C82.9453 24.3906 83.2083 24.599 83.5156 24.75C83.8281 24.901 84.1823 24.9766 84.5781 24.9766C85.0885 24.9766 85.5208 24.8724 85.875 24.6641C86.2292 24.4557 86.5391 24.1771 86.8047 23.8281L87.6797 24.5234C87.4974 24.7995 87.2656 25.0625 86.9844 25.3125C86.7031 25.5625 86.3568 25.7656 85.9453 25.9219C85.5391 26.0781 85.0573 26.1562 84.5 26.1562ZM90.9219 18.875V26H89.4766V17.5469H90.8828L90.9219 18.875ZM93.5625 17.5L93.5547 18.8438C93.4349 18.8177 93.3203 18.8021 93.2109 18.7969C93.1068 18.7865 92.987 18.7812 92.8516 18.7812C92.5182 18.7812 92.224 18.8333 91.9688 18.9375C91.7135 19.0417 91.4974 19.1875 91.3203 19.375C91.1432 19.5625 91.0026 19.7865 90.8984 20.0469C90.7995 20.3021 90.7344 20.5833 90.7031 20.8906L90.2969 21.125C90.2969 20.6146 90.3464 20.1354 90.4453 19.6875C90.5495 19.2396 90.7083 18.8438 90.9219 18.5C91.1354 18.151 91.4062 17.8802 91.7344 17.6875C92.0677 17.4896 92.4635 17.3906 92.9219 17.3906C93.026 17.3906 93.1458 17.4036 93.2812 17.4297C93.4167 17.4505 93.5104 17.474 93.5625 17.5ZM97.4141 25.125L99.7656 17.5469H101.312L97.9219 27.3047C97.8438 27.513 97.7396 27.737 97.6094 27.9766C97.4844 28.2214 97.3229 28.4531 97.125 28.6719C96.9271 28.8906 96.6875 29.0677 96.4062 29.2031C96.1302 29.3438 95.7995 29.4141 95.4141 29.4141C95.2995 29.4141 95.1536 29.3984 94.9766 29.3672C94.7995 29.3359 94.6745 29.3099 94.6016 29.2891L94.5938 28.1172C94.6354 28.1224 94.7005 28.1276 94.7891 28.1328C94.8828 28.1432 94.9479 28.1484 94.9844 28.1484C95.3125 28.1484 95.5911 28.1042 95.8203 28.0156C96.0495 27.9323 96.2422 27.7891 96.3984 27.5859C96.5599 27.388 96.6979 27.1146 96.8125 26.7656L97.4141 25.125ZM95.6875 17.5469L97.8828 24.1094L98.2578 25.6328L97.2188 26.1641L94.1094 17.5469H95.6875Z" fill="#C3C3C3"/>
</svg>
