<svg width="40" height="21" viewBox="0 0 40 21" fill="none" xmlns="http://www.w3.org/2000/svg">
<path d="M20 2.1665C15.4 2.1665 11.6666 5.89984 11.6666 10.4998C11.6666 15.0998 15.4 18.8332 20 18.8332C24.6 18.8332 28.3333 15.0998 28.3333 10.4998C28.3333 5.89984 24.6 2.1665 20 2.1665ZM20 14.6665C19.5416 14.6665 19.1666 14.2915 19.1666 13.8332V10.4998C19.1666 10.0415 19.5416 9.6665 20 9.6665C20.4583 9.6665 20.8333 10.0415 20.8333 10.4998V13.8332C20.8333 14.2915 20.4583 14.6665 20 14.6665ZM20.8333 7.99984H19.1666V6.33317H20.8333V7.99984Z" fill="#797979"/>
</svg>
