<svg width="31" height="30" viewBox="0 0 31 30" fill="none" xmlns="http://www.w3.org/2000/svg">
<path d="M26.8397 0H4.92491C2.6923 0 0.882324 1.80989 0.882324 4.04256V25.9573C0.882324 28.19 2.69222 29.9999 4.92491 29.9999H15.7332L15.7516 19.2795H12.9664C12.6045 19.2795 12.3107 18.9869 12.3093 18.6249L12.296 15.1693C12.2946 14.8054 12.5892 14.5096 12.9531 14.5096H15.7332V11.1706C15.7332 7.29576 18.0998 5.18587 21.5564 5.18587H24.3929C24.7558 5.18587 25.0501 5.48008 25.0501 5.84305V8.75684C25.0501 9.11967 24.756 9.4138 24.3933 9.41402L22.6526 9.41483C20.7727 9.41483 20.4087 10.3081 20.4087 11.619V14.5097H24.5394C24.933 14.5097 25.2383 14.8534 25.1919 15.2442L24.7824 18.6998C24.7432 19.0305 24.4628 19.2797 24.1298 19.2797H20.4271L20.4087 30H26.8398C29.0724 30 30.8823 28.1901 30.8823 25.9575V4.04256C30.8823 1.80989 29.0724 0 26.8397 0Z" fill="#797979"/>
</svg>
