<svg width="30" height="30" viewBox="0 0 30 30" fill="none" xmlns="http://www.w3.org/2000/svg">
<path d="M14.9771 7.53C14.7193 7.53 14.4642 7.54315 14.213 7.56889C13.9617 7.59463 13.7139 7.63277 13.4703 7.68283C13.2268 7.7329 12.9875 7.7949 12.753 7.86807L12.0649 8.12076L11.4097 8.43713L10.7914 8.81334L10.2137 9.24543L9.68063 9.72967L9.19593 10.2623L8.76336 10.8393L8.38668 11.457L8.07012 12.1115C7.97497 12.3353 7.89033 12.5648 7.81706 12.7991C7.74379 13.0333 7.6818 13.2725 7.63164 13.5158C7.58147 13.7591 7.54334 14.0066 7.51751 14.2577C7.49167 14.5088 7.47871 14.7635 7.47871 15.0211C7.47871 15.2787 7.49186 15.5334 7.51751 15.7845C7.543 16.0336 7.5811 16.2812 7.63164 16.5265C7.6818 16.7707 7.74379 17.0089 7.81706 17.2432C7.89033 17.4775 7.97487 17.7069 8.07012 17.9308L8.38668 18.5852L8.76336 19.2029L9.19593 19.78L9.68063 20.3126L10.2137 20.7968L10.7914 21.2289L11.4097 21.6051L12.0649 21.9215L12.753 22.1742L13.4703 22.3594C13.7158 22.4099 13.9637 22.448 14.213 22.4735C14.4669 22.4994 14.7219 22.5123 14.9771 22.5123C15.235 22.5123 15.49 22.4991 15.7412 22.4735C15.9905 22.448 16.2384 22.4099 16.4838 22.3594L17.2012 22.1742L17.8894 21.9215L18.5445 21.6051L19.1628 21.2289L19.7405 20.7968L20.2737 20.3126L20.7584 19.78L21.191 19.2029L21.5677 18.5852L21.8842 17.9308L22.1373 17.2432C22.2106 17.0089 22.2725 16.7698 22.3227 16.5265L22.4368 15.7844C22.4626 15.5333 22.4757 15.2786 22.4757 15.021C22.4757 14.7634 22.4626 14.5087 22.4368 14.2576C22.4113 14.0085 22.3732 13.7609 22.3227 13.5157C22.2725 13.2715 22.2106 13.0333 22.1373 12.799L21.8842 12.1114L21.5677 11.4569L21.191 10.8392L20.7584 10.2622L20.2737 9.72957L19.7405 9.24534L19.1628 8.81324L18.5445 8.43703L17.8894 8.12066L17.2012 7.86798L16.4838 7.68274L15.7412 7.5688C15.4873 7.54287 15.2323 7.52998 14.9771 7.53ZM14.9771 10.1156C15.1476 10.1156 15.3159 10.1241 15.4816 10.1408L15.97 10.2147L16.4418 10.335L16.8937 10.4991L17.3232 10.7048L17.7272 10.9495L18.1048 11.231L18.4529 11.5468L18.769 11.8946L19.0508 12.2718L19.2958 12.6763L19.5015 13.1056C19.5633 13.2525 19.6181 13.4031 19.6659 13.557C19.7136 13.711 19.7537 13.8683 19.7861 14.0286C19.8185 14.1888 19.8425 14.3519 19.86 14.5175L19.8852 15.0216C19.8852 15.1919 19.8767 15.36 19.86 15.5257C19.8433 15.6914 19.8187 15.8545 19.7861 16.0146C19.7535 16.1748 19.7133 16.3321 19.6659 16.4862L19.5015 16.9376L19.2958 17.3669L19.0508 17.7713L18.769 18.1486L18.4529 18.4964L18.1048 18.8122L17.7272 19.0937L17.3232 19.3384L16.8937 19.5441L16.4418 19.7082L15.97 19.8285L15.4816 19.9023C15.3139 19.9191 15.1455 19.9275 14.977 19.9275C14.8085 19.9275 14.6401 19.9191 14.4724 19.9023L13.984 19.8285C13.8236 19.796 13.6662 19.7558 13.512 19.7082L13.0602 19.5441L12.6306 19.3384L12.2267 19.0937L11.8491 18.8122L11.501 18.4964L11.1849 18.1486L10.9031 17.7713L10.6581 17.3669L10.4524 16.9376L10.288 16.4862L10.1678 16.0146L10.0938 15.5257C10.077 15.3582 10.0686 15.1899 10.0687 15.0216C10.0686 14.8532 10.077 14.685 10.0938 14.5175C10.1105 14.3519 10.1352 14.1887 10.1678 14.0286C10.2 13.8695 10.2402 13.7122 10.2881 13.5571L10.4525 13.1057L10.6582 12.6764L10.9032 12.2719L11.185 11.8947L11.5011 11.5469L11.8492 11.2311L12.2268 10.9496L12.6307 10.7049L13.0603 10.4992C13.2082 10.4371 13.359 10.3823 13.5122 10.3351L13.9841 10.2148C14.1445 10.1823 14.3077 10.1575 14.4726 10.1409C14.6403 10.1241 14.8086 10.1156 14.9771 10.1156Z" fill="#797979"/>
<path d="M22.7797 5.399C22.7202 5.39902 22.6607 5.40203 22.6014 5.40802C22.5422 5.41401 22.4833 5.42298 22.4249 5.43489C22.3666 5.44679 22.3088 5.46162 22.252 5.47932C22.1951 5.49703 22.1391 5.5176 22.0843 5.54094C22.0295 5.56431 21.9758 5.59042 21.9236 5.61919C21.8713 5.64789 21.8205 5.67921 21.7714 5.71303C21.7223 5.74688 21.6748 5.78318 21.6293 5.8218C21.5838 5.86039 21.5402 5.90124 21.4987 5.9442C21.4572 5.98719 21.4179 6.03224 21.3809 6.07918C21.3439 6.12613 21.3093 6.17491 21.2771 6.22535C21.245 6.27574 21.2154 6.32772 21.1884 6.38109C21.1613 6.4345 21.137 6.48924 21.1154 6.5451C21.0938 6.60095 21.075 6.65785 21.0591 6.71559C21.0432 6.77333 21.0301 6.83183 21.02 6.89087C21.0099 6.9499 21.0027 7.00941 20.9985 7.06916C20.9955 7.11149 20.994 7.15391 20.994 7.19635C20.994 7.2563 20.997 7.31621 21.0029 7.37586C21.0089 7.43548 21.0178 7.49476 21.0296 7.55349C21.0414 7.61221 21.0562 7.6703 21.0738 7.72755C21.0914 7.78481 21.1118 7.84114 21.135 7.89635C21.1582 7.95157 21.1841 8.00559 21.2127 8.0582C21.2412 8.1108 21.2724 8.16193 21.306 8.2114C21.3396 8.26084 21.3756 8.30856 21.414 8.35437C21.4523 8.40022 21.4929 8.44411 21.5356 8.48588C21.5784 8.52762 21.6231 8.56719 21.6698 8.60443C21.7164 8.64169 21.7649 8.67659 21.815 8.70897C21.8651 8.74137 21.9168 8.77121 21.9699 8.7984C22.0229 8.8256 22.0773 8.85012 22.1328 8.87186C22.1883 8.89357 22.2448 8.91247 22.3021 8.9285C22.3595 8.9445 22.4176 8.95761 22.4763 8.96776C22.535 8.97797 22.5941 8.98521 22.6535 8.98946C22.6955 8.99247 22.7376 8.99397 22.7798 8.99397C22.8393 8.99399 22.8988 8.99101 22.9581 8.98505C23.0173 8.97906 23.0762 8.97009 23.1346 8.95818C23.1929 8.94628 23.2506 8.93146 23.3075 8.91375C23.3644 8.89604 23.4204 8.87547 23.4752 8.85213C23.53 8.82879 23.5837 8.80271 23.6359 8.77398C23.6882 8.74524 23.739 8.71389 23.7881 8.68004C23.8372 8.64622 23.8847 8.60995 23.9302 8.57136C23.9757 8.53275 24.0193 8.49187 24.0608 8.44887C24.1023 8.40588 24.1416 8.36083 24.1786 8.31389C24.2156 8.26694 24.2502 8.21816 24.2824 8.16773C24.3145 8.1173 24.3441 8.06529 24.3711 8.01189C24.3982 7.95848 24.4225 7.90374 24.4441 7.84788C24.4657 7.79203 24.4845 7.73513 24.5004 7.67739C24.5163 7.61965 24.5294 7.56115 24.5395 7.50211C24.5496 7.44307 24.5568 7.38357 24.561 7.32382C24.564 7.28149 24.5655 7.23907 24.5655 7.19663C24.5655 7.13671 24.5625 7.07683 24.5566 7.01722C24.5506 6.95759 24.5417 6.89831 24.5299 6.83958C24.5181 6.78086 24.5033 6.72277 24.4857 6.66552C24.4681 6.60826 24.4477 6.55193 24.4245 6.49672C24.4013 6.4415 24.3754 6.38749 24.3468 6.33487C24.3183 6.28227 24.2871 6.23114 24.2535 6.18167C24.2199 6.13219 24.1838 6.08445 24.1454 6.03861C24.1071 5.99276 24.0665 5.94887 24.0239 5.9071C23.9811 5.86535 23.9364 5.82579 23.8897 5.78855C23.8431 5.75132 23.7946 5.71646 23.7445 5.6841C23.6944 5.65171 23.6427 5.62186 23.5896 5.59467C23.5366 5.56747 23.4822 5.54295 23.4267 5.52121C23.3712 5.4995 23.3147 5.4806 23.2574 5.46457C23.2 5.44854 23.1419 5.4354 23.0832 5.42521C23.0245 5.41504 22.9654 5.40783 22.906 5.40361C22.864 5.4006 22.8219 5.39901 22.7797 5.399Z" fill="#797979"/>
<path d="M13.5551 0.365996C12.7396 0.364681 12.0118 0.368062 11.358 0.377268L9.6052 0.424235C9.08593 0.446779 8.62715 0.476178 8.21534 0.514222C8.00944 0.533197 7.81518 0.554426 7.63107 0.577816C7.45587 0.599898 7.28115 0.625611 7.10701 0.654937C6.94122 0.683118 6.78388 0.713551 6.63302 0.746616C6.48216 0.779681 6.33806 0.815377 6.19904 0.853703C6.06313 0.891179 5.92829 0.932402 5.79465 0.977321C5.66371 1.02147 5.53596 1.06825 5.4098 1.11822C5.15749 1.21817 4.91139 1.33032 4.65795 1.45601C4.46294 1.55276 4.28278 1.65074 4.11163 1.75444C3.94048 1.85814 3.77835 1.96767 3.6196 2.08697C3.45611 2.21042 3.29853 2.34151 3.14739 2.4798C2.98939 2.62371 2.82801 2.78199 2.66034 2.95887C2.44964 3.1799 2.26657 3.38599 2.10406 3.58823C2.02281 3.6893 1.94672 3.78925 1.87505 3.88976C1.80417 3.98881 1.73641 4.09006 1.67187 4.19336C1.60799 4.29574 1.5475 4.40001 1.48963 4.50729C1.43087 4.61641 1.37533 4.72723 1.32309 4.83962C1.21619 5.0692 1.11643 5.31644 1.01686 5.59242C0.942993 5.79644 0.876848 6.00318 0.818566 6.2122C0.759105 6.4258 0.70622 6.64927 0.659065 6.89097C0.61191 7.13266 0.570767 7.39258 0.534602 7.68002C0.49563 7.9951 0.464497 8.31109 0.441231 8.62772C0.414929 8.97584 0.393137 9.35891 0.375289 9.78528L0.333019 11.2029L0.310286 12.9311L0.303711 15.0199L0.322968 18.0574L0.383086 20.3588L0.429395 21.2578L0.487259 22.0027C0.505808 22.2035 0.529016 22.4038 0.556865 22.6035C0.582227 22.7808 0.609468 22.936 0.638775 23.0703C0.698243 23.3434 0.768561 23.6141 0.849564 23.8816C0.927124 24.1377 1.01582 24.3903 1.1154 24.6387C1.21328 24.882 1.32036 25.1166 1.43684 25.3424C1.55332 25.5682 1.67919 25.7852 1.81446 25.9937C1.94972 26.2021 2.09438 26.402 2.24881 26.5934C2.40307 26.7847 2.56714 26.9679 2.74037 27.1423C2.91387 27.317 3.09685 27.4833 3.2897 27.6413C3.48483 27.8011 3.68766 27.9513 3.89746 28.0912C4.09218 28.2214 4.28484 28.3406 4.47891 28.4501C4.67298 28.5595 4.86874 28.6588 5.06995 28.7491C5.27116 28.8393 5.47744 28.9206 5.69292 28.9937C5.90841 29.0667 6.13291 29.1317 6.37019 29.1894C6.60747 29.2471 6.85865 29.2977 7.12448 29.3419C7.39032 29.386 7.67447 29.4239 7.97807 29.4565C8.28166 29.4891 8.60555 29.516 8.95358 29.5386C9.3016 29.5611 9.67358 29.5792 10.0733 29.5936C10.6907 29.616 11.6254 29.629 12.7032 29.634L16.1924 29.627L19.4964 29.5807L20.7527 29.5453L21.5711 29.5033C21.7468 29.489 21.9187 29.4721 22.0846 29.4522C22.2505 29.4324 22.4141 29.4098 22.5734 29.3841C22.7327 29.3583 22.8885 29.3296 23.0415 29.2976C23.1927 29.2661 23.3432 29.231 23.4928 29.1921C23.6408 29.1546 23.7868 29.1118 23.9312 29.0665C24.0757 29.0211 24.2187 28.9721 24.3608 28.9195C24.5037 28.8665 24.6454 28.8101 24.7856 28.7503C24.9268 28.6902 25.0678 28.6259 25.2092 28.5577C25.4265 28.4531 25.6014 28.3658 25.755 28.2806C25.8994 28.2013 26.0386 28.1127 26.1715 28.0153C26.3026 27.9188 26.433 27.8089 26.5833 27.6704C26.7336 27.5319 26.9039 27.3651 27.1148 27.1541C27.3001 26.9689 27.4564 26.8079 27.5912 26.6615C27.726 26.515 27.8396 26.3832 27.9391 26.2562C28.0341 26.1357 28.1225 26.0102 28.204 25.8803C28.2836 25.7535 28.3569 25.6218 28.4316 25.4757C28.5439 25.2559 28.6438 25.0524 28.7334 24.8559C28.8203 24.6667 28.8997 24.474 28.9714 24.2784C29.042 24.0844 29.1032 23.8871 29.1547 23.6871C29.2076 23.4814 29.2533 23.2642 29.2927 23.026C29.3322 22.7878 29.3655 22.5285 29.3945 22.239C29.4234 21.9495 29.448 21.6296 29.4696 21.2701L29.5269 20.0633L29.5761 18.5625L29.6113 16.8905L29.6248 15.1422L29.5934 11.7084L29.5514 10.1704L29.4941 8.84988L29.4227 7.82035C29.3968 7.53385 29.3688 7.30822 29.3391 7.15567C29.3063 6.98712 29.2696 6.81934 29.2291 6.65247C29.1896 6.49009 29.1462 6.3287 29.099 6.16842C29.0529 6.01227 29.0028 5.85733 28.9489 5.70373C28.8955 5.55202 28.8389 5.40352 28.7798 5.2582C28.7206 5.11288 28.6565 4.97095 28.5898 4.83202C28.5231 4.69309 28.4533 4.55754 28.3799 4.42509C28.3065 4.29264 28.2301 4.16348 28.1501 4.03752C28.0702 3.91155 27.987 3.78878 27.9003 3.6693C27.8141 3.55019 27.7241 3.43381 27.6307 3.32033C27.5377 3.20747 27.4411 3.09757 27.3412 2.99081C27.2414 2.88418 27.1382 2.78073 27.0318 2.68064C26.9254 2.5805 26.8158 2.48356 26.7027 2.38981C26.5892 2.29576 26.4728 2.20525 26.3536 2.11844C26.2332 2.03073 26.1102 1.94672 25.9847 1.86651C25.8574 1.78515 25.7278 1.70759 25.596 1.63392C25.4618 1.55902 25.3255 1.48798 25.1873 1.42088C24.9579 1.30938 24.7458 1.21047 24.5376 1.12273C24.3329 1.03566 24.1242 0.958327 23.9122 0.890995C23.6989 0.823832 23.477 0.76625 23.2327 0.716559C22.9885 0.666868 22.7222 0.625442 22.4208 0.590217C22.1193 0.554991 21.7828 0.52653 21.3978 0.502858C21.0129 0.479187 20.5799 0.460586 20.0856 0.445557L18.4055 0.407984L16.2791 0.382903L13.5561 0.366182L13.5551 0.365996ZM14.9693 2.94938L18.8961 2.97174L20.3774 3.00029C20.7854 3.01175 21.0967 3.02519 21.2792 3.04069C21.5168 3.06069 21.7432 3.08577 21.9597 3.11583C22.1675 3.14453 22.3743 3.18021 22.5797 3.22282C22.777 3.26416 22.9651 3.31112 23.1452 3.3641C23.3253 3.41708 23.4973 3.47645 23.6623 3.54211C23.8274 3.60777 23.9852 3.68 24.1371 3.7591C24.2877 3.83759 24.4342 3.92398 24.5757 4.01789C24.7166 4.11135 24.8525 4.21205 24.9843 4.32054C25.1162 4.42904 25.2441 4.54533 25.3689 4.6697C25.5007 4.80092 25.6223 4.93459 25.7343 5.07249C25.846 5.20953 25.9493 5.35316 26.0436 5.50261C26.1391 5.65419 26.2251 5.81152 26.3012 5.9737C26.379 6.13902 26.4489 6.31374 26.5116 6.49945C26.5744 6.68516 26.6303 6.88251 26.6798 7.0934C26.7316 7.31697 26.775 7.54242 26.81 7.76925C26.8475 8.00973 26.8797 8.26617 26.9069 8.54074C26.9341 8.81531 26.9567 9.1081 26.9753 9.42137C26.9901 9.67265 27.0031 10.0042 27.0141 10.3959L27.0416 11.7311L27.0626 15.0019L27.0387 18.2696L27.0099 19.6011L26.9704 20.5694C26.943 21.0229 26.914 21.404 26.8795 21.7358C26.8621 21.9017 26.8433 22.0552 26.8225 22.1992C26.8029 22.3352 26.7798 22.4707 26.753 22.6056C26.7286 22.7285 26.7003 22.8507 26.668 22.9719C26.6372 23.0875 26.6024 23.2021 26.5639 23.3154C26.525 23.4293 26.4828 23.5419 26.4371 23.6532C26.3889 23.7707 26.338 23.8871 26.2845 24.0024C26.2369 24.1052 26.1868 24.2053 26.1338 24.3027C26.0814 24.3991 26.0258 24.4937 25.967 24.5863C25.9088 24.6781 25.8477 24.7673 25.7838 24.8536C25.7203 24.9396 25.6537 25.0234 25.5841 25.1046C25.5148 25.1855 25.4425 25.2638 25.3674 25.3394C25.2923 25.415 25.2143 25.488 25.1335 25.5585C25.0527 25.6289 24.9689 25.6966 24.8822 25.7617C24.7955 25.8269 24.7058 25.8895 24.6131 25.9494C24.5204 26.0094 24.4248 26.0668 24.326 26.1217C24.2273 26.1766 24.1255 26.229 24.0208 26.2789C23.9142 26.3295 23.8062 26.3769 23.6968 26.4211C23.5837 26.4667 23.4694 26.5091 23.3539 26.5484C23.1191 26.6284 22.8714 26.6987 22.6106 26.7592C22.3389 26.822 22.0646 26.8733 21.7885 26.9131C21.6824 26.9286 21.4384 26.9432 21.089 26.9567L19.7574 26.9937L15.9821 27.0427L12.0307 27.0489L10.4789 27.0324L9.47125 27.001L8.72823 26.9488C8.49753 26.9294 8.28298 26.9078 8.08196 26.8832C7.88094 26.8587 7.69373 26.8314 7.5176 26.8006C7.35069 26.7717 7.18481 26.7372 7.02022 26.6972C6.87014 26.6607 6.7216 26.6182 6.57497 26.5697C6.43359 26.5227 6.29842 26.4711 6.16691 26.4142C6.03541 26.3574 5.90766 26.2951 5.78113 26.2271C5.6546 26.1591 5.52938 26.0853 5.40276 26.0048C5.30723 25.9441 5.21489 25.8826 5.12603 25.8175C5.03717 25.7525 4.95131 25.6875 4.86865 25.6195C4.78598 25.5515 4.70661 25.4815 4.63005 25.4093C4.554 25.3375 4.48056 25.263 4.40987 25.1859C4.33942 25.1091 4.27207 25.03 4.20744 24.9481C4.14256 24.8659 4.08074 24.7813 4.02211 24.6945C3.9626 24.6064 3.9063 24.5161 3.85331 24.4239C3.79977 24.3309 3.74885 24.2348 3.70048 24.1356C3.65129 24.0345 3.60539 23.9318 3.56286 23.8277C3.51965 23.7218 3.4787 23.6124 3.44018 23.4995C3.36316 23.2736 3.29552 23.0331 3.23672 22.7767C3.17792 22.5203 3.12776 22.2479 3.0853 21.9576C3.04284 21.6673 3.00865 21.3596 2.98141 21.0325C2.96131 20.7916 2.94534 20.4163 2.93313 19.9429L2.90758 18.2591L2.91697 13.9668L2.9909 9.86522L3.04726 8.42013L3.07919 7.94247C3.09028 7.81491 3.10174 7.72041 3.11348 7.66367C3.15218 7.47702 3.19116 7.30334 3.23146 7.14074C3.26911 6.98734 3.31099 6.83502 3.35705 6.68394C3.40083 6.54134 3.44695 6.40777 3.49626 6.28124C3.54382 6.15867 3.59682 6.03828 3.65511 5.92043C3.71203 5.80584 3.77318 5.69612 3.83959 5.58932C3.90601 5.48251 3.97768 5.3789 4.05583 5.27586C4.13398 5.17281 4.21815 5.07108 4.30974 4.96794C4.40132 4.8648 4.50024 4.76063 4.60751 4.65326C4.73253 4.52753 4.86271 4.40703 4.99771 4.29208C5.12519 4.18363 5.25812 4.08177 5.39599 3.98689C5.53154 3.89295 5.67057 3.80935 5.81532 3.73251C5.96007 3.65567 6.11055 3.58626 6.26883 3.52379C6.42711 3.46132 6.59338 3.40543 6.7695 3.35471C6.95454 3.30281 7.14163 3.25853 7.33029 3.22198C7.52868 3.18309 7.73938 3.14918 7.96435 3.11959C8.18932 3.09 8.42867 3.06445 8.68455 3.04228C8.86302 3.02688 9.17057 3.01316 9.57552 3.00161L11.0493 2.97249L14.97 2.94854L14.9693 2.94938Z" fill="#797979"/>
</svg>
