<svg width="28" height="30" viewBox="0 0 28 30" fill="none" xmlns="http://www.w3.org/2000/svg">
<path d="M11.698 11.0599C9.77561 10.7945 7.81809 11.1234 6.08795 12.0022C4.3578 12.8811 2.93775 14.268 2.01825 15.9769C1.09874 17.6858 0.723755 19.635 0.943572 21.563C1.16339 23.4911 1.9675 25.3059 3.24807 26.7639C4.52863 28.222 6.22441 29.2537 8.10798 29.7205C9.99156 30.1874 11.9728 30.0672 13.7861 29.376C15.5994 28.6847 17.158 27.4556 18.2529 25.8534C19.3477 24.2512 19.9265 22.3525 19.9115 20.412V10.0027C21.9982 11.4954 24.5024 12.2922 27.0679 12.2797V7.15638C25.1699 7.15638 23.3497 6.40241 22.0076 5.06033C20.6655 3.71825 19.9115 1.89799 19.9115 0H14.7069V20.4933C14.7113 21.4227 14.4207 22.3295 13.8769 23.0832C13.3331 23.837 12.5643 24.3987 11.6809 24.6877C10.7976 24.9767 9.84536 24.978 8.96126 24.6914C8.07715 24.4047 7.30678 23.845 6.76101 23.0927C6.21524 22.3405 5.92221 21.4344 5.92411 20.505C5.926 19.5756 6.22272 18.6708 6.77155 17.9207C7.32039 17.1707 8.09304 16.6141 8.97831 16.3311C9.86357 16.0481 10.8158 16.0533 11.698 16.3458" fill="#797979"/>
</svg>
