<svg width="38" height="26" viewBox="0 0 38 26" fill="none" xmlns="http://www.w3.org/2000/svg">
<path fill-rule="evenodd" clip-rule="evenodd" d="M33.0009 0.963262C34.5791 1.3903 35.8119 2.62308 36.2389 4.20123C37.4473 9.06522 37.1681 16.7472 36.2624 21.7989C35.8353 23.377 34.6026 24.6098 33.0244 25.0369C30.1853 25.8112 18.7586 25.8112 18.7586 25.8112C18.7586 25.8112 7.33183 25.8112 4.49274 25.0369C2.91459 24.6098 1.68181 23.377 1.25477 21.7989C0.039358 16.956 0.37254 9.26936 1.23131 4.22469C1.65835 2.64655 2.89113 1.41377 4.46928 0.986725C7.30836 0.212428 18.7351 0.188965 18.7351 0.188965C18.7351 0.188965 30.1619 0.188965 33.0009 0.963262ZM24.5775 13.0001L15.0983 18.4906V7.50968L24.5775 13.0001Z" fill="#797979"/>
</svg>
