<svg width="180" height="42" viewBox="0 0 180 42" fill="none" xmlns="http://www.w3.org/2000/svg">
<g filter="url(#filter0_i_189_9501)">
<rect width="180" height="42" rx="10" fill="#A3A3A3" fill-opacity="0.15"/>
<path d="M23.375 20.6797H20.4922L20.4766 19.4688H23.0938C23.526 19.4688 23.9036 19.3958 24.2266 19.25C24.5495 19.1042 24.7995 18.8958 24.9766 18.625C25.1589 18.349 25.25 18.0208 25.25 17.6406C25.25 17.224 25.1693 16.8854 25.0078 16.625C24.8516 16.3594 24.6094 16.1667 24.2812 16.0469C23.9583 15.9219 23.5469 15.8594 23.0469 15.8594H20.8281V26H19.3203V14.625H23.0469C23.6302 14.625 24.151 14.6849 24.6094 14.8047C25.0677 14.9193 25.4557 15.1016 25.7734 15.3516C26.0964 15.5964 26.3411 15.9089 26.5078 16.2891C26.6745 16.6693 26.7578 17.125 26.7578 17.6562C26.7578 18.125 26.638 18.5495 26.3984 18.9297C26.1589 19.3047 25.8255 19.612 25.3984 19.8516C24.9766 20.0911 24.4818 20.2448 23.9141 20.3125L23.375 20.6797ZM23.3047 26H19.8984L20.75 24.7734H23.3047C23.7839 24.7734 24.1901 24.6901 24.5234 24.5234C24.862 24.3568 25.1198 24.1224 25.2969 23.8203C25.474 23.513 25.5625 23.151 25.5625 22.7344C25.5625 22.3125 25.487 21.9479 25.3359 21.6406C25.1849 21.3333 24.9479 21.0964 24.625 20.9297C24.3021 20.763 23.8854 20.6797 23.375 20.6797H21.2266L21.2422 19.4688H24.1797L24.5 19.9062C25.0469 19.9531 25.5104 20.1094 25.8906 20.375C26.2708 20.6354 26.5599 20.9688 26.7578 21.375C26.9609 21.7812 27.0625 22.2292 27.0625 22.7188C27.0625 23.4271 26.9062 24.026 26.5938 24.5156C26.2865 25 25.8516 25.3698 25.2891 25.625C24.7266 25.875 24.0651 26 23.3047 26ZM30.5156 18.875V26H29.0703V17.5469H30.4766L30.5156 18.875ZM33.1562 17.5L33.1484 18.8438C33.0286 18.8177 32.9141 18.8021 32.8047 18.7969C32.7005 18.7865 32.5807 18.7812 32.4453 18.7812C32.112 18.7812 31.8177 18.8333 31.5625 18.9375C31.3073 19.0417 31.0911 19.1875 30.9141 19.375C30.737 19.5625 30.5964 19.7865 30.4922 20.0469C30.3932 20.3021 30.3281 20.5833 30.2969 20.8906L29.8906 21.125C29.8906 20.6146 29.9401 20.1354 30.0391 19.6875C30.1432 19.2396 30.3021 18.8438 30.5156 18.5C30.7292 18.151 31 17.8802 31.3281 17.6875C31.6615 17.4896 32.0573 17.3906 32.5156 17.3906C32.6198 17.3906 32.7396 17.4036 32.875 17.4297C33.0104 17.4505 33.1042 17.474 33.1562 17.5ZM33.9531 21.8672V21.6875C33.9531 21.0781 34.0417 20.513 34.2188 19.9922C34.3958 19.4661 34.651 19.0104 34.9844 18.625C35.3177 18.2344 35.7214 17.9323 36.1953 17.7188C36.6693 17.5 37.2005 17.3906 37.7891 17.3906C38.3828 17.3906 38.9167 17.5 39.3906 17.7188C39.8698 17.9323 40.276 18.2344 40.6094 18.625C40.9479 19.0104 41.2057 19.4661 41.3828 19.9922C41.5599 20.513 41.6484 21.0781 41.6484 21.6875V21.8672C41.6484 22.4766 41.5599 23.0417 41.3828 23.5625C41.2057 24.0833 40.9479 24.5391 40.6094 24.9297C40.276 25.3151 39.8724 25.6172 39.3984 25.8359C38.9297 26.0495 38.3984 26.1562 37.8047 26.1562C37.2109 26.1562 36.6771 26.0495 36.2031 25.8359C35.7292 25.6172 35.3229 25.3151 34.9844 24.9297C34.651 24.5391 34.3958 24.0833 34.2188 23.5625C34.0417 23.0417 33.9531 22.4766 33.9531 21.8672ZM35.3984 21.6875V21.8672C35.3984 22.2891 35.4479 22.6875 35.5469 23.0625C35.6458 23.4323 35.7943 23.7604 35.9922 24.0469C36.1953 24.3333 36.4479 24.5599 36.75 24.7266C37.0521 24.888 37.4036 24.9688 37.8047 24.9688C38.2005 24.9688 38.5469 24.888 38.8438 24.7266C39.1458 24.5599 39.3958 24.3333 39.5938 24.0469C39.7917 23.7604 39.9401 23.4323 40.0391 23.0625C40.1432 22.6875 40.1953 22.2891 40.1953 21.8672V21.6875C40.1953 21.2708 40.1432 20.8776 40.0391 20.5078C39.9401 20.1328 39.7891 19.8021 39.5859 19.5156C39.388 19.224 39.138 18.9948 38.8359 18.8281C38.5391 18.6615 38.1901 18.5781 37.7891 18.5781C37.3932 18.5781 37.0443 18.6615 36.7422 18.8281C36.4453 18.9948 36.1953 19.224 35.9922 19.5156C35.7943 19.8021 35.6458 20.1328 35.5469 20.5078C35.4479 20.8776 35.3984 21.2708 35.3984 21.6875ZM45.6016 24.5L47.7734 17.5469H48.7266L48.5391 18.9297L46.3281 26H45.3984L45.6016 24.5ZM44.1406 17.5469L45.9922 24.5781L46.125 26H45.1484L42.6953 17.5469H44.1406ZM50.8047 24.5234L52.5703 17.5469H54.0078L51.5547 26H50.5859L50.8047 24.5234ZM48.9375 17.5469L51.0625 24.3828L51.3047 26H50.3828L48.1094 18.9141L47.9219 17.5469H48.9375ZM60.4141 23.7578C60.4141 23.5495 60.3672 23.3568 60.2734 23.1797C60.1849 22.9974 60 22.8333 59.7188 22.6875C59.4427 22.5365 59.026 22.4062 58.4688 22.2969C58 22.1979 57.5755 22.0807 57.1953 21.9453C56.8203 21.8099 56.5 21.6458 56.2344 21.4531C55.974 21.2604 55.7734 21.0339 55.6328 20.7734C55.4922 20.513 55.4219 20.2083 55.4219 19.8594C55.4219 19.526 55.4948 19.2109 55.6406 18.9141C55.7917 18.6172 56.0026 18.3542 56.2734 18.125C56.5495 17.8958 56.8802 17.7161 57.2656 17.5859C57.651 17.4557 58.0807 17.3906 58.5547 17.3906C59.2318 17.3906 59.8099 17.5104 60.2891 17.75C60.7682 17.9896 61.1354 18.3099 61.3906 18.7109C61.6458 19.1068 61.7734 19.5469 61.7734 20.0312H60.3281C60.3281 19.7969 60.2578 19.5703 60.1172 19.3516C59.9818 19.1276 59.7812 18.9427 59.5156 18.7969C59.2552 18.651 58.9349 18.5781 58.5547 18.5781C58.1536 18.5781 57.8281 18.6406 57.5781 18.7656C57.3333 18.8854 57.1536 19.0391 57.0391 19.2266C56.9297 19.4141 56.875 19.612 56.875 19.8203C56.875 19.9766 56.901 20.1172 56.9531 20.2422C57.0104 20.362 57.1094 20.474 57.25 20.5781C57.3906 20.6771 57.5885 20.7708 57.8438 20.8594C58.099 20.9479 58.4245 21.0365 58.8203 21.125C59.513 21.2812 60.0833 21.4688 60.5312 21.6875C60.9792 21.9062 61.3125 22.1745 61.5312 22.4922C61.75 22.8099 61.8594 23.1953 61.8594 23.6484C61.8594 24.0182 61.7812 24.3568 61.625 24.6641C61.474 24.9714 61.2526 25.237 60.9609 25.4609C60.6745 25.6797 60.3307 25.8516 59.9297 25.9766C59.5339 26.0964 59.0885 26.1562 58.5938 26.1562C57.849 26.1562 57.2188 26.0234 56.7031 25.7578C56.1875 25.4922 55.7969 25.1484 55.5312 24.7266C55.2656 24.3047 55.1328 23.8594 55.1328 23.3906H56.5859C56.6068 23.7865 56.7214 24.1016 56.9297 24.3359C57.138 24.5651 57.3932 24.7292 57.6953 24.8281C57.9974 24.9219 58.2969 24.9688 58.5938 24.9688C58.9896 24.9688 59.3203 24.9167 59.5859 24.8125C59.8568 24.7083 60.0625 24.5651 60.2031 24.3828C60.3438 24.2005 60.4141 23.9922 60.4141 23.7578ZM67.2656 26.1562C66.6771 26.1562 66.1432 26.0573 65.6641 25.8594C65.1901 25.6562 64.7812 25.3724 64.4375 25.0078C64.099 24.6432 63.8385 24.2109 63.6562 23.7109C63.474 23.2109 63.3828 22.6641 63.3828 22.0703V21.7422C63.3828 21.0547 63.4844 20.4427 63.6875 19.9062C63.8906 19.3646 64.1667 18.9062 64.5156 18.5312C64.8646 18.1562 65.2604 17.8724 65.7031 17.6797C66.1458 17.487 66.6042 17.3906 67.0781 17.3906C67.6823 17.3906 68.2031 17.4948 68.6406 17.7031C69.0833 17.9115 69.4453 18.2031 69.7266 18.5781C70.0078 18.9479 70.2161 19.3854 70.3516 19.8906C70.487 20.3906 70.5547 20.9375 70.5547 21.5312V22.1797H64.2422V21H69.1094V20.8906C69.0885 20.5156 69.0104 20.151 68.875 19.7969C68.7448 19.4427 68.5365 19.151 68.25 18.9219C67.9635 18.6927 67.5729 18.5781 67.0781 18.5781C66.75 18.5781 66.4479 18.6484 66.1719 18.7891C65.8958 18.9245 65.6589 19.1276 65.4609 19.3984C65.263 19.6693 65.1094 20 65 20.3906C64.8906 20.7812 64.8359 21.2318 64.8359 21.7422V22.0703C64.8359 22.4714 64.8906 22.849 65 23.2031C65.1146 23.5521 65.2786 23.8594 65.4922 24.125C65.7109 24.3906 65.974 24.599 66.2812 24.75C66.5938 24.901 66.9479 24.9766 67.3438 24.9766C67.8542 24.9766 68.2865 24.8724 68.6406 24.6641C68.9948 24.4557 69.3047 24.1771 69.5703 23.8281L70.4453 24.5234C70.263 24.7995 70.0312 25.0625 69.75 25.3125C69.4688 25.5625 69.1224 25.7656 68.7109 25.9219C68.3047 26.0781 67.8229 26.1562 67.2656 26.1562ZM80.3203 14.625V26H78.8359V14.625H80.3203ZM83.9766 14.625V15.8594H75.1875V14.625H83.9766ZM86.2969 18.875V26H84.8516V17.5469H86.2578L86.2969 18.875ZM88.9375 17.5L88.9297 18.8438C88.8099 18.8177 88.6953 18.8021 88.5859 18.7969C88.4818 18.7865 88.362 18.7812 88.2266 18.7812C87.8932 18.7812 87.599 18.8333 87.3438 18.9375C87.0885 19.0417 86.8724 19.1875 86.6953 19.375C86.5182 19.5625 86.3776 19.7865 86.2734 20.0469C86.1745 20.3021 86.1094 20.5833 86.0781 20.8906L85.6719 21.125C85.6719 20.6146 85.7214 20.1354 85.8203 19.6875C85.9245 19.2396 86.0833 18.8438 86.2969 18.5C86.5104 18.151 86.7812 17.8802 87.1094 17.6875C87.4427 17.4896 87.8385 17.3906 88.2969 17.3906C88.401 17.3906 88.5208 17.4036 88.6562 17.4297C88.7917 17.4505 88.8854 17.474 88.9375 17.5ZM94.9453 24.5547V20.2031C94.9453 19.8698 94.8776 19.5807 94.7422 19.3359C94.612 19.0859 94.4141 18.8932 94.1484 18.7578C93.8828 18.6224 93.5547 18.5547 93.1641 18.5547C92.7995 18.5547 92.4792 18.6172 92.2031 18.7422C91.9323 18.8672 91.7188 19.0312 91.5625 19.2344C91.4115 19.4375 91.3359 19.6562 91.3359 19.8906H89.8906C89.8906 19.5885 89.9688 19.2891 90.125 18.9922C90.2812 18.6953 90.5052 18.4271 90.7969 18.1875C91.0938 17.9427 91.4479 17.75 91.8594 17.6094C92.276 17.4635 92.7396 17.3906 93.25 17.3906C93.8646 17.3906 94.4062 17.4948 94.875 17.7031C95.349 17.9115 95.7188 18.2266 95.9844 18.6484C96.2552 19.0651 96.3906 19.5885 96.3906 20.2188V24.1562C96.3906 24.4375 96.4141 24.737 96.4609 25.0547C96.513 25.3724 96.5885 25.6458 96.6875 25.875V26H95.1797C95.1068 25.8333 95.0495 25.612 95.0078 25.3359C94.9661 25.0547 94.9453 24.7943 94.9453 24.5547ZM95.1953 20.875L95.2109 21.8906H93.75C93.3385 21.8906 92.9714 21.9245 92.6484 21.9922C92.3255 22.0547 92.0547 22.151 91.8359 22.2812C91.6172 22.4115 91.4505 22.5755 91.3359 22.7734C91.2214 22.9661 91.1641 23.1927 91.1641 23.4531C91.1641 23.7188 91.224 23.9609 91.3438 24.1797C91.4635 24.3984 91.6432 24.5729 91.8828 24.7031C92.1276 24.8281 92.4271 24.8906 92.7812 24.8906C93.224 24.8906 93.6146 24.7969 93.9531 24.6094C94.2917 24.4219 94.5599 24.1927 94.7578 23.9219C94.9609 23.651 95.0703 23.388 95.0859 23.1328L95.7031 23.8281C95.6667 24.0469 95.5677 24.2891 95.4062 24.5547C95.2448 24.8203 95.0286 25.0755 94.7578 25.3203C94.4922 25.5599 94.1745 25.7604 93.8047 25.9219C93.4401 26.0781 93.0286 26.1562 92.5703 26.1562C91.9974 26.1562 91.4948 26.0443 91.0625 25.8203C90.6354 25.5964 90.3021 25.2969 90.0625 24.9219C89.8281 24.5417 89.7109 24.1172 89.7109 23.6484C89.7109 23.1953 89.7995 22.7969 89.9766 22.4531C90.1536 22.1042 90.4089 21.8151 90.7422 21.5859C91.0755 21.3516 91.4766 21.1745 91.9453 21.0547C92.4141 20.9349 92.9375 20.875 93.5156 20.875H95.1953ZM100.234 17.5469V26H98.7812V17.5469H100.234ZM98.6719 15.3047C98.6719 15.0703 98.7422 14.8724 98.8828 14.7109C99.0286 14.5495 99.2422 14.4688 99.5234 14.4688C99.7995 14.4688 100.01 14.5495 100.156 14.7109C100.307 14.8724 100.383 15.0703 100.383 15.3047C100.383 15.5286 100.307 15.7214 100.156 15.8828C100.01 16.0391 99.7995 16.1172 99.5234 16.1172C99.2422 16.1172 99.0286 16.0391 98.8828 15.8828C98.7422 15.7214 98.6719 15.5286 98.6719 15.3047ZM104.125 14V26H102.672V14H104.125ZM109.953 26.1562C109.365 26.1562 108.831 26.0573 108.352 25.8594C107.878 25.6562 107.469 25.3724 107.125 25.0078C106.786 24.6432 106.526 24.2109 106.344 23.7109C106.161 23.2109 106.07 22.6641 106.07 22.0703V21.7422C106.07 21.0547 106.172 20.4427 106.375 19.9062C106.578 19.3646 106.854 18.9062 107.203 18.5312C107.552 18.1562 107.948 17.8724 108.391 17.6797C108.833 17.487 109.292 17.3906 109.766 17.3906C110.37 17.3906 110.891 17.4948 111.328 17.7031C111.771 17.9115 112.133 18.2031 112.414 18.5781C112.695 18.9479 112.904 19.3854 113.039 19.8906C113.174 20.3906 113.242 20.9375 113.242 21.5312V22.1797H106.93V21H111.797V20.8906C111.776 20.5156 111.698 20.151 111.562 19.7969C111.432 19.4427 111.224 19.151 110.938 18.9219C110.651 18.6927 110.26 18.5781 109.766 18.5781C109.438 18.5781 109.135 18.6484 108.859 18.7891C108.583 18.9245 108.346 19.1276 108.148 19.3984C107.951 19.6693 107.797 20 107.688 20.3906C107.578 20.7812 107.523 21.2318 107.523 21.7422V22.0703C107.523 22.4714 107.578 22.849 107.688 23.2031C107.802 23.5521 107.966 23.8594 108.18 24.125C108.398 24.3906 108.661 24.599 108.969 24.75C109.281 24.901 109.635 24.9766 110.031 24.9766C110.542 24.9766 110.974 24.8724 111.328 24.6641C111.682 24.4557 111.992 24.1771 112.258 23.8281L113.133 24.5234C112.951 24.7995 112.719 25.0625 112.438 25.3125C112.156 25.5625 111.81 25.7656 111.398 25.9219C110.992 26.0781 110.51 26.1562 109.953 26.1562ZM116.375 18.875V26H114.93V17.5469H116.336L116.375 18.875ZM119.016 17.5L119.008 18.8438C118.888 18.8177 118.773 18.8021 118.664 18.7969C118.56 18.7865 118.44 18.7812 118.305 18.7812C117.971 18.7812 117.677 18.8333 117.422 18.9375C117.167 19.0417 116.951 19.1875 116.773 19.375C116.596 19.5625 116.456 19.7865 116.352 20.0469C116.253 20.3021 116.188 20.5833 116.156 20.8906L115.75 21.125C115.75 20.6146 115.799 20.1354 115.898 19.6875C116.003 19.2396 116.161 18.8438 116.375 18.5C116.589 18.151 116.859 17.8802 117.188 17.6875C117.521 17.4896 117.917 17.3906 118.375 17.3906C118.479 17.3906 118.599 17.4036 118.734 17.4297C118.87 17.4505 118.964 17.474 119.016 17.5ZM125.273 23.7578C125.273 23.5495 125.227 23.3568 125.133 23.1797C125.044 22.9974 124.859 22.8333 124.578 22.6875C124.302 22.5365 123.885 22.4062 123.328 22.2969C122.859 22.1979 122.435 22.0807 122.055 21.9453C121.68 21.8099 121.359 21.6458 121.094 21.4531C120.833 21.2604 120.633 21.0339 120.492 20.7734C120.352 20.513 120.281 20.2083 120.281 19.8594C120.281 19.526 120.354 19.2109 120.5 18.9141C120.651 18.6172 120.862 18.3542 121.133 18.125C121.409 17.8958 121.74 17.7161 122.125 17.5859C122.51 17.4557 122.94 17.3906 123.414 17.3906C124.091 17.3906 124.669 17.5104 125.148 17.75C125.628 17.9896 125.995 18.3099 126.25 18.7109C126.505 19.1068 126.633 19.5469 126.633 20.0312H125.188C125.188 19.7969 125.117 19.5703 124.977 19.3516C124.841 19.1276 124.641 18.9427 124.375 18.7969C124.115 18.651 123.794 18.5781 123.414 18.5781C123.013 18.5781 122.688 18.6406 122.438 18.7656C122.193 18.8854 122.013 19.0391 121.898 19.2266C121.789 19.4141 121.734 19.612 121.734 19.8203C121.734 19.9766 121.76 20.1172 121.812 20.2422C121.87 20.362 121.969 20.474 122.109 20.5781C122.25 20.6771 122.448 20.7708 122.703 20.8594C122.958 20.9479 123.284 21.0365 123.68 21.125C124.372 21.2812 124.943 21.4688 125.391 21.6875C125.839 21.9062 126.172 22.1745 126.391 22.4922C126.609 22.8099 126.719 23.1953 126.719 23.6484C126.719 24.0182 126.641 24.3568 126.484 24.6641C126.333 24.9714 126.112 25.237 125.82 25.4609C125.534 25.6797 125.19 25.8516 124.789 25.9766C124.393 26.0964 123.948 26.1562 123.453 26.1562C122.708 26.1562 122.078 26.0234 121.562 25.7578C121.047 25.4922 120.656 25.1484 120.391 24.7266C120.125 24.3047 119.992 23.8594 119.992 23.3906H121.445C121.466 23.7865 121.581 24.1016 121.789 24.3359C121.997 24.5651 122.253 24.7292 122.555 24.8281C122.857 24.9219 123.156 24.9688 123.453 24.9688C123.849 24.9688 124.18 24.9167 124.445 24.8125C124.716 24.7083 124.922 24.5651 125.062 24.3828C125.203 24.2005 125.273 23.9922 125.273 23.7578Z" fill="#C3C3C3"/>
<path d="M148.209 23.774L150.987 20.9964L148.209 18.2188C147.93 17.9396 147.93 17.4886 148.209 17.2094C148.489 16.9302 148.94 16.9302 149.219 17.2094L152.505 20.4953C152.784 20.7745 152.784 21.2255 152.505 21.5047L149.219 24.7906C148.94 25.0698 148.489 25.0698 148.209 24.7906C147.937 24.5114 147.93 24.0532 148.209 23.774Z" fill="#C3C3C3"/>
</g>
<defs>
<filter id="filter0_i_189_9501" x="0" y="0" width="180" height="43" filterUnits="userSpaceOnUse" color-interpolation-filters="sRGB">
<feFlood flood-opacity="0" result="BackgroundImageFix"/>
<feBlend mode="normal" in="SourceGraphic" in2="BackgroundImageFix" result="shape"/>
<feColorMatrix in="SourceAlpha" type="matrix" values="0 0 0 0 0 0 0 0 0 0 0 0 0 0 0 0 0 0 127 0" result="hardAlpha"/>
<feOffset dy="1"/>
<feGaussianBlur stdDeviation="1"/>
<feComposite in2="hardAlpha" operator="arithmetic" k2="-1" k3="1"/>
<feColorMatrix type="matrix" values="0 0 0 0 1 0 0 0 0 1 0 0 0 0 1 0 0 0 0.08 0"/>
<feBlend mode="normal" in2="shape" result="effect1_innerShadow_189_9501"/>
</filter>
</defs>
</svg>
