<svg width="17" height="18" viewBox="0 0 17 18" fill="none" xmlns="http://www.w3.org/2000/svg">
<path d="M15.2273 1.63636H14.4091V0.818182C14.4091 0.368182 14.0409 0 13.5909 0C13.1409 0 12.7727 0.368182 12.7727 0.818182V1.63636H4.59091V0.818182C4.59091 0.368182 4.22273 0 3.77273 0C3.32273 0 2.95455 0.368182 2.95455 0.818182V1.63636H2.13636C1.23636 1.63636 0.5 2.37273 0.5 3.27273V16.3636C0.5 17.2636 1.23636 18 2.13636 18H15.2273C16.1273 18 16.8636 17.2636 16.8636 16.3636V3.27273C16.8636 2.37273 16.1273 1.63636 15.2273 1.63636ZM14.4091 16.3636H2.95455C2.50455 16.3636 2.13636 15.9955 2.13636 15.5455V5.72727H15.2273V15.5455C15.2273 15.9955 14.8591 16.3636 14.4091 16.3636Z" fill="#797979"/>
</svg>
