<svg width="204" height="42" viewBox="0 0 204 42" fill="none" xmlns="http://www.w3.org/2000/svg">
<g filter="url(#filter0_i_2249_2816)">
<rect width="204" height="42" rx="10" fill="#A3A3A3" fill-opacity="0.05"/>
<path d="M25 15.8203V26.1803C25 26.9703 25.87 27.4503 26.54 27.0203L34.68 21.8403C35.3 21.4503 35.3 20.5503 34.68 20.1503L26.54 14.9803C25.87 14.5503 25 15.0303 25 15.8203Z" fill="#C3C3C3"/>
<path d="M57.5234 14.625V26H56.0391V14.625H57.5234ZM61.1797 14.625V15.8594H52.3906V14.625H61.1797ZM63.5 18.875V26H62.0547V17.5469H63.4609L63.5 18.875ZM66.1406 17.5L66.1328 18.8438C66.013 18.8177 65.8984 18.8021 65.7891 18.7969C65.6849 18.7865 65.5651 18.7812 65.4297 18.7812C65.0964 18.7812 64.8021 18.8333 64.5469 18.9375C64.2917 19.0417 64.0755 19.1875 63.8984 19.375C63.7214 19.5625 63.5807 19.7865 63.4766 20.0469C63.3776 20.3021 63.3125 20.5833 63.2812 20.8906L62.875 21.125C62.875 20.6146 62.9245 20.1354 63.0234 19.6875C63.1276 19.2396 63.2865 18.8438 63.5 18.5C63.7135 18.151 63.9844 17.8802 64.3125 17.6875C64.6458 17.4896 65.0417 17.3906 65.5 17.3906C65.6042 17.3906 65.724 17.4036 65.8594 17.4297C65.9948 17.4505 66.0885 17.474 66.1406 17.5ZM72.1484 24.5547V20.2031C72.1484 19.8698 72.0807 19.5807 71.9453 19.3359C71.8151 19.0859 71.6172 18.8932 71.3516 18.7578C71.0859 18.6224 70.7578 18.5547 70.3672 18.5547C70.0026 18.5547 69.6823 18.6172 69.4062 18.7422C69.1354 18.8672 68.9219 19.0312 68.7656 19.2344C68.6146 19.4375 68.5391 19.6562 68.5391 19.8906H67.0938C67.0938 19.5885 67.1719 19.2891 67.3281 18.9922C67.4844 18.6953 67.7083 18.4271 68 18.1875C68.2969 17.9427 68.651 17.75 69.0625 17.6094C69.4792 17.4635 69.9427 17.3906 70.4531 17.3906C71.0677 17.3906 71.6094 17.4948 72.0781 17.7031C72.5521 17.9115 72.9219 18.2266 73.1875 18.6484C73.4583 19.0651 73.5938 19.5885 73.5938 20.2188V24.1562C73.5938 24.4375 73.6172 24.737 73.6641 25.0547C73.7161 25.3724 73.7917 25.6458 73.8906 25.875V26H72.3828C72.3099 25.8333 72.2526 25.612 72.2109 25.3359C72.1693 25.0547 72.1484 24.7943 72.1484 24.5547ZM72.3984 20.875L72.4141 21.8906H70.9531C70.5417 21.8906 70.1745 21.9245 69.8516 21.9922C69.5286 22.0547 69.2578 22.151 69.0391 22.2812C68.8203 22.4115 68.6536 22.5755 68.5391 22.7734C68.4245 22.9661 68.3672 23.1927 68.3672 23.4531C68.3672 23.7188 68.4271 23.9609 68.5469 24.1797C68.6667 24.3984 68.8464 24.5729 69.0859 24.7031C69.3307 24.8281 69.6302 24.8906 69.9844 24.8906C70.4271 24.8906 70.8177 24.7969 71.1562 24.6094C71.4948 24.4219 71.763 24.1927 71.9609 23.9219C72.1641 23.651 72.2734 23.388 72.2891 23.1328L72.9062 23.8281C72.8698 24.0469 72.7708 24.2891 72.6094 24.5547C72.4479 24.8203 72.2318 25.0755 71.9609 25.3203C71.6953 25.5599 71.3776 25.7604 71.0078 25.9219C70.6432 26.0781 70.2318 26.1562 69.7734 26.1562C69.2005 26.1562 68.6979 26.0443 68.2656 25.8203C67.8385 25.5964 67.5052 25.2969 67.2656 24.9219C67.0312 24.5417 66.9141 24.1172 66.9141 23.6484C66.9141 23.1953 67.0026 22.7969 67.1797 22.4531C67.3568 22.1042 67.612 21.8151 67.9453 21.5859C68.2786 21.3516 68.6797 21.1745 69.1484 21.0547C69.6172 20.9349 70.1406 20.875 70.7188 20.875H72.3984ZM77.4375 17.5469V26H75.9844V17.5469H77.4375ZM75.875 15.3047C75.875 15.0703 75.9453 14.8724 76.0859 14.7109C76.2318 14.5495 76.4453 14.4688 76.7266 14.4688C77.0026 14.4688 77.2135 14.5495 77.3594 14.7109C77.5104 14.8724 77.5859 15.0703 77.5859 15.3047C77.5859 15.5286 77.5104 15.7214 77.3594 15.8828C77.2135 16.0391 77.0026 16.1172 76.7266 16.1172C76.4453 16.1172 76.2318 16.0391 76.0859 15.8828C75.9453 15.7214 75.875 15.5286 75.875 15.3047ZM81.3281 14V26H79.875V14H81.3281ZM87.1562 26.1562C86.5677 26.1562 86.0339 26.0573 85.5547 25.8594C85.0807 25.6562 84.6719 25.3724 84.3281 25.0078C83.9896 24.6432 83.7292 24.2109 83.5469 23.7109C83.3646 23.2109 83.2734 22.6641 83.2734 22.0703V21.7422C83.2734 21.0547 83.375 20.4427 83.5781 19.9062C83.7812 19.3646 84.0573 18.9062 84.4062 18.5312C84.7552 18.1562 85.151 17.8724 85.5938 17.6797C86.0365 17.487 86.4948 17.3906 86.9688 17.3906C87.5729 17.3906 88.0938 17.4948 88.5312 17.7031C88.974 17.9115 89.3359 18.2031 89.6172 18.5781C89.8984 18.9479 90.1068 19.3854 90.2422 19.8906C90.3776 20.3906 90.4453 20.9375 90.4453 21.5312V22.1797H84.1328V21H89V20.8906C88.9792 20.5156 88.901 20.151 88.7656 19.7969C88.6354 19.4427 88.4271 19.151 88.1406 18.9219C87.8542 18.6927 87.4635 18.5781 86.9688 18.5781C86.6406 18.5781 86.3385 18.6484 86.0625 18.7891C85.7865 18.9245 85.5495 19.1276 85.3516 19.3984C85.1536 19.6693 85 20 84.8906 20.3906C84.7812 20.7812 84.7266 21.2318 84.7266 21.7422V22.0703C84.7266 22.4714 84.7812 22.849 84.8906 23.2031C85.0052 23.5521 85.1693 23.8594 85.3828 24.125C85.6016 24.3906 85.8646 24.599 86.1719 24.75C86.4844 24.901 86.8385 24.9766 87.2344 24.9766C87.7448 24.9766 88.1771 24.8724 88.5312 24.6641C88.8854 24.4557 89.1953 24.1771 89.4609 23.8281L90.3359 24.5234C90.1536 24.7995 89.9219 25.0625 89.6406 25.3125C89.3594 25.5625 89.013 25.7656 88.6016 25.9219C88.1953 26.0781 87.7135 26.1562 87.1562 26.1562ZM93.5781 18.875V26H92.1328V17.5469H93.5391L93.5781 18.875ZM96.2188 17.5L96.2109 18.8438C96.0911 18.8177 95.9766 18.8021 95.8672 18.7969C95.763 18.7865 95.6432 18.7812 95.5078 18.7812C95.1745 18.7812 94.8802 18.8333 94.625 18.9375C94.3698 19.0417 94.1536 19.1875 93.9766 19.375C93.7995 19.5625 93.6589 19.7865 93.5547 20.0469C93.4557 20.3021 93.3906 20.5833 93.3594 20.8906L92.9531 21.125C92.9531 20.6146 93.0026 20.1354 93.1016 19.6875C93.2057 19.2396 93.3646 18.8438 93.5781 18.5C93.7917 18.151 94.0625 17.8802 94.3906 17.6875C94.724 17.4896 95.1198 17.3906 95.5781 17.3906C95.6823 17.3906 95.8021 17.4036 95.9375 17.4297C96.0729 17.4505 96.1667 17.474 96.2188 17.5Z" fill="#C3C3C3"/>
</g>
<defs>
<filter id="filter0_i_2249_2816" x="0" y="0" width="204" height="43" filterUnits="userSpaceOnUse" color-interpolation-filters="sRGB">
<feFlood flood-opacity="0" result="BackgroundImageFix"/>
<feBlend mode="normal" in="SourceGraphic" in2="BackgroundImageFix" result="shape"/>
<feColorMatrix in="SourceAlpha" type="matrix" values="0 0 0 0 0 0 0 0 0 0 0 0 0 0 0 0 0 0 127 0" result="hardAlpha"/>
<feOffset dy="1"/>
<feGaussianBlur stdDeviation="1"/>
<feComposite in2="hardAlpha" operator="arithmetic" k2="-1" k3="1"/>
<feColorMatrix type="matrix" values="0 0 0 0 1 0 0 0 0 1 0 0 0 0 1 0 0 0 0.08 0"/>
<feBlend mode="normal" in2="shape" result="effect1_innerShadow_2249_2816"/>
</filter>
</defs>
</svg>
