<svg width="61" height="31" viewBox="0 0 61 31" fill="none" xmlns="http://www.w3.org/2000/svg">
<path d="M61 2.76909C60.8345 1.41542 59.8299 0.336517 58.5504 0.126465C52.9427 0.126465 8.0817 0.126465 2.47395 0.126465C1.07254 0.356674 0 1.62866 0 3.16161C0 5.62601 0 25.337 0 27.8003C0 29.4977 1.3123 30.8736 2.93224 30.8736C8.4477 30.8736 52.5767 30.8736 58.0922 30.8736C59.5837 30.8736 60.8154 29.7056 61 28.1939C61 23.1091 61 5.31093 61 2.76909Z" fill="#F6C700"/>
<path d="M7.35693 6.30518H12.1977V24.9393H7.35693V6.30518Z" fill="black"/>
<path d="M21.3446 14.8886C20.9287 12.0487 20.6974 10.4701 20.6518 10.155C20.4492 8.63477 20.2561 7.31187 20.0715 6.18311C19.6525 6.18311 17.5615 6.18311 13.7954 6.18311V24.8173H18.0357L18.0506 12.5133L19.8349 24.8173H22.8552L24.5473 12.2396L24.5632 24.8173H28.7897V6.18311H22.4659L21.3446 14.8886Z" fill="black"/>
<path d="M36.7814 10.0595C36.8345 10.2972 36.862 10.8361 36.862 11.6784C36.862 12.4009 36.862 18.1805 36.862 18.9029C36.862 20.1431 36.7814 20.9027 36.6212 21.1827C36.46 21.4628 36.0314 21.6018 35.3365 21.6018C35.3365 20.3786 35.3365 10.5931 35.3365 9.36996C35.8638 9.36996 36.2234 9.42618 36.4143 9.53651C36.6053 9.64791 36.7284 9.82189 36.7814 10.0595ZM38.9679 24.6274C39.5439 24.5011 40.0277 24.2784 40.4202 23.9612C40.8117 23.6429 41.0864 23.2026 41.2434 22.6393C41.4015 22.0771 41.4949 20.96 41.4949 19.2891C41.4949 18.6356 41.4949 13.4002 41.4949 12.7456C41.4949 10.9825 41.4259 9.80067 41.3187 9.20022C41.2105 8.59871 40.9421 8.05236 40.5125 7.56224C40.0818 7.07211 39.4537 6.71991 38.6284 6.50561C37.802 6.29131 36.4547 6.18311 34.1112 6.18311C33.8704 6.18311 32.6674 6.18311 30.5 6.18311V24.8173H36.3645C37.716 24.7748 38.5838 24.7123 38.9679 24.6274Z" fill="black"/>
<path d="M49.3051 21.8423C49.216 22.0789 48.8256 22.1988 48.5307 22.1988C48.2421 22.1988 48.0501 22.0842 47.9525 21.854C47.8549 21.6248 47.8071 21.1018 47.8071 20.2828C47.8071 19.7906 47.8071 15.8505 47.8071 15.3583C47.8071 14.5096 47.8496 13.9802 47.9355 13.7691C48.0204 13.5601 48.2071 13.454 48.4956 13.454C48.7906 13.454 49.1863 13.5739 49.2881 13.8147C49.3889 14.0555 49.4398 14.5701 49.4398 15.3583C49.4398 15.6765 49.4398 17.2678 49.4398 20.1333C49.4091 21.1146 49.3645 21.6842 49.3051 21.8423ZM43.1436 24.6547H47.5016C47.683 23.9428 47.7827 23.5471 47.8029 23.4676C48.1975 23.945 48.6314 24.3035 49.1078 24.5412C49.582 24.7799 50.2917 24.8987 50.8412 24.8987C51.6061 24.8987 52.266 24.6982 52.8229 24.2961C53.3788 23.8951 53.7332 23.4198 53.8838 22.8735C54.0344 22.3261 54.1098 21.4944 54.1098 20.3762C54.1098 19.8532 54.1098 15.6712 54.1098 15.1482C54.1098 14.0237 54.0843 13.2896 54.0344 12.9448C53.9846 12.6 53.8361 12.2489 53.5889 11.8892C53.3417 11.5296 52.9821 11.2506 52.511 11.0512C52.04 10.8517 51.4841 10.752 50.8433 10.752C50.2864 10.752 49.5735 10.8634 49.0982 11.083C48.624 11.3026 48.1933 11.6357 47.8071 12.0823C47.8071 11.6781 47.8071 9.65823 47.8071 6.02051H43.1436V24.6547Z" fill="black"/>
</svg>
