<svg width="14" height="10" viewBox="0 0 14 10" fill="none" xmlns="http://www.w3.org/2000/svg">
<path d="M0.777778 10H13.2222C13.65 10 14 9.625 14 9.16667C14 8.70833 13.65 8.33333 13.2222 8.33333H0.777778C0.35 8.33333 0 8.70833 0 9.16667C0 9.625 0.35 10 0.777778 10ZM0.777778 5.83333H13.2222C13.65 5.83333 14 5.45833 14 5C14 4.54167 13.65 4.16667 13.2222 4.16667H0.777778C0.35 4.16667 0 4.54167 0 5C0 5.45833 0.35 5.83333 0.777778 5.83333ZM0 0.833333C0 1.29167 0.35 1.66667 0.777778 1.66667H13.2222C13.65 1.66667 14 1.29167 14 0.833333C14 0.375 13.65 0 13.2222 0H0.777778C0.35 0 0 0.375 0 0.833333Z" fill="#C3C3C3"/>
</svg>
