<svg width="22" height="23" viewBox="0 0 22 23" fill="none" xmlns="http://www.w3.org/2000/svg">
<path d="M11 6.5C8.24 6.5 6 8.74 6 11.5C6 14.26 8.24 16.5 11 16.5C13.76 16.5 16 14.26 16 11.5C16 8.74 13.76 6.5 11 6.5ZM1 12.5H3C3.55 12.5 4 12.05 4 11.5C4 10.95 3.55 10.5 3 10.5H1C0.45 10.5 0 10.95 0 11.5C0 12.05 0.45 12.5 1 12.5ZM19 12.5H21C21.55 12.5 22 12.05 22 11.5C22 10.95 21.55 10.5 21 10.5H19C18.45 10.5 18 10.95 18 11.5C18 12.05 18.45 12.5 19 12.5ZM10 1.5V3.5C10 4.05 10.45 4.5 11 4.5C11.55 4.5 12 4.05 12 3.5V1.5C12 0.95 11.55 0.5 11 0.5C10.45 0.5 10 0.95 10 1.5ZM10 19.5V21.5C10 22.05 10.45 22.5 11 22.5C11.55 22.5 12 22.05 12 21.5V19.5C12 18.95 11.55 18.5 11 18.5C10.45 18.5 10 18.95 10 19.5ZM4.99 4.08C4.6 3.69 3.96 3.69 3.58 4.08C3.19 4.47 3.19 5.11 3.58 5.49L4.64 6.55C5.03 6.94 5.67 6.94 6.05 6.55C6.43 6.16 6.44 5.52 6.05 5.14L4.99 4.08ZM17.36 16.45C16.97 16.06 16.33 16.06 15.95 16.45C15.56 16.84 15.56 17.48 15.95 17.86L17.01 18.92C17.4 19.31 18.04 19.31 18.42 18.92C18.81 18.53 18.81 17.89 18.42 17.51L17.36 16.45ZM18.42 5.49C18.81 5.1 18.81 4.46 18.42 4.08C18.03 3.69 17.39 3.69 17.01 4.08L15.95 5.14C15.56 5.53 15.56 6.17 15.95 6.55C16.34 6.93 16.98 6.94 17.36 6.55L18.42 5.49ZM6.05 17.86C6.44 17.47 6.44 16.83 6.05 16.45C5.66 16.06 5.02 16.06 4.64 16.45L3.58 17.51C3.19 17.9 3.19 18.54 3.58 18.92C3.97 19.3 4.61 19.31 4.99 18.92L6.05 17.86Z" fill="#C3C3C3"/>
</svg>
