<svg width="212" height="205" viewBox="0 0 212 205" fill="none" xmlns="http://www.w3.org/2000/svg">
<g clip-path="url(#clip0_2064_2617)">
<path d="M114.928 191.556L114.928 191.556C113.315 192.362 111.448 192.883 109.406 192.883C105.894 192.883 102.85 191.485 100.528 189.339C98.0587 187.062 96.3914 183.872 96.3914 180.083C96.3914 178.409 96.7145 176.726 97.4053 175.118C98.0922 173.511 99.0692 172.164 100.171 171.062L123.401 147.832L123.36 147.791L100.152 170.828C100.147 170.833 100.142 170.837 100.137 170.842C99.0383 171.938 97.696 172.91 96.0961 173.594C94.4881 174.284 92.8049 174.608 91.1311 174.608C87.5827 174.608 84.4574 173.175 82.1106 170.828L88.121 164.818L82.1106 170.828C79.7638 168.481 78.331 165.356 78.331 161.808C78.331 160.144 78.6489 158.561 79.2 157.1C79.8106 155.467 80.8485 153.782 82.4692 152.426L105.148 129.579L105.084 129.515L81.8761 152.553C81.8707 152.558 81.8653 152.564 81.8599 152.569C80.6683 153.755 79.3459 154.52 78.3771 155.005C76.7643 155.811 74.8975 156.332 72.8557 156.332C69.3074 156.332 66.182 154.899 63.8353 152.553L69.8457 146.542L63.8352 152.553C61.4885 150.206 60.0556 147.081 60.0556 143.532C60.0556 141.882 60.3669 140.218 61.0383 138.621L61.061 138.567L61.0845 138.513C61.7713 136.941 62.734 135.616 63.8213 134.526C63.8259 134.521 63.8306 134.516 63.8353 134.512L86.8725 111.304L86.831 111.262L63.6008 134.492M114.928 191.556L63.6008 134.492M114.928 191.556C115.901 191.069 117.231 190.299 118.427 189.103M114.928 191.556L112.416 183.093L118.427 189.103M63.6008 134.492C62.4051 135.688 61.0751 136.458 60.1017 136.945M63.6008 134.492L60.1017 136.945M60.1017 136.945C60.1017 136.945 60.1017 136.945 60.1016 136.945L56.3004 129.342L60.1017 136.945ZM111.159 184.018L111.126 183.953L111.159 184.018ZM111.159 184.018L111.191 184.082L111.159 184.018ZM194.685 109.693L194.682 109.702C193.439 113.078 191.484 116.046 188.948 118.582L118.427 189.103M194.685 109.693L118.427 189.103M194.685 109.693L194.689 109.683M194.685 109.693L194.689 109.683M194.689 109.683C195.793 106.659 196.383 103.524 196.383 100.316C196.383 97.03 195.816 93.8233 194.657 90.7531L194.652 90.7398M194.689 109.683L194.652 90.7398M194.652 90.7398L194.647 90.7265M194.652 90.7398L194.647 90.7265M194.647 90.7265C193.385 87.4168 191.403 84.5451 188.831 82.1488L152.515 45.8319C150.118 43.2605 147.246 41.2778 143.937 40.016L143.923 40.011M194.647 90.7265L143.923 40.011M143.923 40.011L143.91 40.006M143.923 40.011L143.91 40.006M143.91 40.006C140.84 38.8473 137.633 38.2803 134.347 38.2803C131.139 38.2803 128.004 38.8699 124.98 39.9746L124.971 39.978M143.91 40.006L124.971 39.978M124.971 39.978L124.961 39.9815M124.971 39.978L124.961 39.9815M124.961 39.9815C121.585 41.2238 118.617 43.1793 116.081 45.715L113.716 48.08L107.746 54.0502M124.961 39.9815L107.746 54.0502M107.746 54.0502L113.676 60.0604M107.746 54.0502L113.676 60.0604M113.676 60.0604L129.586 76.1857L129.709 76.3103M113.676 60.0604L129.709 76.3103M129.709 76.3103L129.837 76.4297M129.709 76.3103L129.837 76.4297M129.837 76.4297C131.113 77.6204 131.933 78.8609 132.445 80.1766L139.973 77.2491M129.837 76.4297L139.973 77.2491M139.973 77.2491L132.445 80.1767C133.053 81.7396 133.372 83.4151 133.372 85.266C133.372 89.1393 132.152 91.9954 129.738 94.4091C127.316 96.831 124.456 98.0514 120.587 98.0514C118.736 98.0514 116.999 97.732 115.324 97.0976L115.319 97.0954M139.973 77.2491L115.319 97.0954M115.319 97.0954C113.792 96.5184 112.486 95.6749 111.332 94.5209L111.312 94.5008M115.319 97.0954L111.312 94.5008M111.312 94.5008L111.291 94.4807M111.312 94.5008L111.291 94.4807M111.291 94.4807L95.166 78.5704L89.1558 72.6404M111.291 94.4807L89.1558 72.6404M89.1558 72.6404L83.1856 78.6106M89.1558 72.6404L83.1856 78.6106M83.1856 78.6106L45.5599 116.236C44.4516 117.345 43.4815 118.689 42.795 120.279L42.7857 120.3M83.1856 78.6106L42.7857 120.3M42.7857 120.3L42.7765 120.322M42.7857 120.3L42.7765 120.322M42.7765 120.322C42.0914 121.933 41.7803 123.607 41.7803 125.257M42.7765 120.322L41.7803 125.257M41.7803 125.257C41.7803 128.769 43.1784 131.813 45.3239 134.135L41.7803 125.257Z" stroke="#F5C518" stroke-width="17"/>
<path d="M135.789 70.0141L119.82 53.8295L107.52 41.745L105.146 39.3713C101.837 36.0625 98.0595 33.5449 93.8127 31.8185C89.5716 30.0922 85.2212 29.229 80.7614 29.229C76.3017 29.229 71.9513 30.0922 67.7102 31.8185C63.4634 33.5449 59.6136 36.0625 56.1609 39.3713L25.734 69.7983C22.7129 72.8194 20.3392 76.2347 18.6128 80.0442C16.8865 83.8594 15.8794 87.7811 15.5917 91.8092C15.304 95.8374 15.7356 99.8281 16.8865 103.781C18.0374 107.741 19.8356 111.375 22.2813 114.683L34.7973 102.167C33.9342 100.585 33.3587 98.893 33.071 97.0919C32.7833 95.2965 32.7833 93.5356 33.071 91.8092C33.3587 90.0829 33.9342 88.3565 34.7973 86.6302C35.6605 84.9038 36.7395 83.3933 38.0343 82.0985L68.4612 51.4558C70.1876 49.7294 72.1297 48.4692 74.2876 47.6751C76.4456 46.8867 78.6035 46.4925 80.7614 46.4925C83.0633 46.4925 85.2557 46.8867 87.3388 47.6751C89.4277 48.4692 91.2634 49.7294 92.8459 51.4558L123.704 82.3143C124.136 82.602 124.461 83.0336 124.68 83.6091C124.893 84.1845 124.999 84.76 124.999 85.3354C124.999 86.6302 124.568 87.6746 123.704 88.4687C122.841 89.2571 121.762 89.6513 120.468 89.6513C119.892 89.6513 119.317 89.542 118.741 89.3233C118.166 89.1104 117.734 88.7881 117.446 88.3565L89.1774 60.0875L76.9851 72.2799L89.1774 84.4722L105.362 100.441C107.376 102.455 109.715 103.966 112.38 104.973C115.038 105.98 117.806 106.483 120.683 106.483C126.726 106.483 131.798 104.432 135.901 100.329C139.998 96.2316 142.047 91.1619 142.047 85.1196C142.047 82.2424 141.543 79.509 140.536 76.9195C139.529 74.3299 137.947 72.0281 135.789 70.0141Z" fill="#C3C3C3"/>
</g>
<rect x="0.5" y="0.5" width="211" height="204" stroke="black"/>
<defs>
<clipPath id="clip0_2064_2617">
<rect width="212" height="205" fill="white"/>
</clipPath>
</defs>
</svg>
