<svg width="22" height="23" viewBox="0 0 22 23" fill="none" xmlns="http://www.w3.org/2000/svg">
<path fill-rule="evenodd" clip-rule="evenodd" d="M11 22.5C17.0751 22.5 22 17.5751 22 11.5C22 5.42487 17.0751 0.5 11 0.5C4.92487 0.5 0 5.42487 0 11.5C0 17.5751 4.92487 22.5 11 22.5ZM13.5629 8.07143C13.5629 9.49429 12.4229 10.6429 11 10.6429C9.57714 10.6429 8.42857 9.49429 8.42857 8.07143C8.42857 6.64857 9.57714 5.5 11 5.5C12.4229 5.5 13.5629 6.64857 13.5629 8.07143ZM5 15.3571C5 13.36 9.00286 12.3571 11 12.3571C12.9971 12.3571 17 13.36 17 15.3571V16.6429C17 17.1143 16.6143 17.5 16.1429 17.5H5.85714C5.38571 17.5 5 17.1143 5 16.6429V15.3571Z" fill="#C3C3C3"/>
</svg>
